<svg height='100px' width='100px'  fill="#000000" xmlns="http://www.w3.org/2000/svg" xmlns:xlink="http://www.w3.org/1999/xlink" version="1.1" x="0px" y="0px" viewBox="0 0 75 75" style="enable-background:new 0 0 75 75;" xml:space="preserve"><path d="M63.3969727,5.7929688c-0.390625-0.390625-1.0234375-0.390625-1.4140625,0L43.4055176,24.3703613  c-0.6934814-0.2041016-1.3764648-0.3664551-2.0505371-0.4915161v-0.5390015c0-2.1171875-1.7226563-3.8398438-3.8398438-3.8398438  h-0.3203125c-2.1171875,0-3.8398438,1.7226563-3.8398438,3.8398438v0.5462036  c-9.46875,1.7860718-16.5612793,9.9992676-16.9561157,19.642395c-1.1434937,0.1421509-2.0390015,1.2194824-2.0390015,2.5814209  c0,0.9404297,0.4570313,1.8012695,1.1948242,2.2470703l2.4135742,1.4506836l-12.175293,12.175293  c-0.390625,0.390625-0.390625,1.0234375,0,1.4140625l5.8100586,5.8100586C11.7983398,69.4023438,12.0541992,69.5,12.3100586,69.5  s0.5117188-0.0976563,0.7070313-0.2929688L26.7241211,55.5h25.2158203c1.3344727,0,2.4199219-1.0854492,2.4199219-2.4199219  v-1.1601563c0-0.2886353-0.0592651-0.5618286-0.1523438-0.8187256l5.1401367-2.7427979  c0.7851563-0.4267578,1.2924805-1.3286133,1.2924805-2.2983398c0-1.4116211-1.0273438-2.5600586-2.2900391-2.5600586h-0.0130615  c-0.2165527-5.1203003-2.3326416-10.0214233-5.9153442-13.6975708l16.7853394-16.7853394  c0.390625-0.390625,0.390625-1.0234375,0-1.4140625L63.3969727,5.7929688z M35.3549805,23.3398438  c0-1.0146484,0.8251953-1.8398438,1.8398438-1.8398438h0.3203125c1.0146484,0,1.8398438,0.8251953,1.8398438,1.8398438v0.2441406  c-0.046875-0.0042114-0.0949707-0.0024414-0.1419678-0.0063477C38.6427612,23.5302734,38.0681763,23.5,37.4902344,23.5h-0.0053711  h-0.2548828h-0.0048828c-0.006958,0-0.013855,0.0009155-0.020813,0.0009155  c-0.5673218,0.0006714-1.1313477,0.0296631-1.6905518,0.0759277c-0.0525513,0.0043335-0.1063232,0.0024414-0.1587524,0.0071411  V23.3398438z M34.5073242,25.6992188C35.3930664,25.5668945,36.309082,25.5,37.2299805,25.5h0.2548828  c0.9208984,0,1.8369141,0.0668945,2.7226563,0.1992188c0.0048828,0.0007324,0.0097656,0.0003662,0.0146484,0.0010376  c0.5198364,0.0727539,1.038269,0.1689453,1.5620117,0.2914429L24.2758789,43.5h-5.8959961  C18.796875,34.5620117,25.5883789,26.9892578,34.5073242,25.6992188z M19.425293,48.3500977l-2.8378906-1.7060547  c-0.1103516-0.0664063-0.2275391-0.2763672-0.2275391-0.5839844c0-0.3637695,0.2060547-0.5600586,0.2900391-0.5600586h0.7099609  h4.9160156L19.425293,48.3500977z M52.3598633,53.0800781c0,0.2275391-0.1923828,0.4199219-0.4199219,0.4199219H28.7241211l2-2  h21.2158203c0.2275391,0,0.4199219,0.1923828,0.4199219,0.4199219V53.0800781z M58.6401367,46.0600586  c0,0.2543945-0.1259766,0.4750977-0.2407227,0.5375977L52.9599609,49.5h-1.0200195H32.7241211l4-4h20.6357422h0.9902344  C58.434082,45.5,58.6401367,45.6962891,58.6401367,46.0600586z M56.3393555,43.5H38.7241211l12.2841797-12.2841797  C54.2182617,34.5180664,56.1245117,38.9091797,56.3393555,43.5z M50.2929688,29.1030273L35.6030273,43.7929688l-6,6l-4,4  L12.3100586,67.0859375l-4.3959961-4.3959961l12.3730469-12.3730469l5.1098633-5.1098633l19.0102539-19.0097656  c0.0006714-0.0006714,0.0009766-0.0014648,0.0016479-0.0021362L62.6899414,7.9140625l4.3959961,4.3959961L50.2929688,29.1030273z"></path></svg>