<svg height='100px' width='100px'  fill="#000000" xmlns="http://www.w3.org/2000/svg" xmlns:xlink="http://www.w3.org/1999/xlink" xml:space="preserve" version="1.1" style="shape-rendering:geometricPrecision;text-rendering:geometricPrecision;image-rendering:optimizeQuality;" viewBox="0 0 847 847" x="0px" y="0px" fill-rule="evenodd" clip-rule="evenodd"><defs><style type="text/css">
   
    .fil0 {fill:#000000;fill-rule:nonzero}
   
  </style></defs><g><path class="fil0" d="M72 571c-4,5 -7,10 -9,16 -3,7 -4,15 -4,24 0,18 7,35 19,47 13,12 30,20 49,20l593 0c19,0 36,-8 48,-20 13,-12 20,-29 20,-47 0,-9 -1,-17 -4,-24 -3,-6 -6,-11 -9,-16l-139 0 -109 0 -455 0zm-40 3c4,-11 11,-22 19,-31 3,-4 8,-6 13,-6l463 0 109 0 146 0 0 0c5,0 10,2 13,5 8,9 15,20 20,32 4,12 7,24 7,37 0,28 -12,53 -30,71 -19,18 -44,30 -72,30l-593 0c-28,0 -54,-12 -72,-30 -19,-18 -30,-43 -30,-71 0,-13 2,-25 7,-37zm767 -64l-751 0c-9,0 -16,-7 -17,-15 -4,-18 -5,-37 -5,-55 0,-72 26,-140 72,-193 45,-53 108,-92 182,-106 20,-4 41,-6 62,-6l163 0c21,0 42,2 62,6 73,14 137,53 182,106 45,53 72,121 72,193 0,18 -2,37 -5,56 -2,8 -9,14 -17,14l0 0zm-737 -34l723 0c1,-12 2,-24 2,-36 0,-64 -24,-124 -64,-171 -40,-48 -97,-82 -162,-95 -18,-3 -37,-5 -56,-5l-163 0c-19,0 -38,2 -56,5 -66,13 -122,47 -163,95 -40,47 -64,107 -64,171 0,12 1,24 3,36zm286 -134c-6,7 -17,7 -24,0 -6,-7 -6,-17 1,-24l26 -26c7,-6 17,-6 24,0 6,7 6,18 0,24l-27 26zm148 0c-7,7 -18,7 -24,0 -7,-7 -7,-17 0,-24l26 -26c7,-6 18,-6 24,0 7,7 7,18 0,24l-26 26zm147 0c-6,7 -17,7 -24,0 -6,-7 -6,-17 1,-24l26 -26c7,-6 17,-6 24,0 6,7 6,18 0,24l-27 26zm-442 0c-7,7 -18,7 -24,0 -7,-7 -7,-17 0,-24l26 -26c7,-6 18,-6 24,0 7,7 7,18 0,24l-26 26zm345 -115c-7,-7 -7,-17 0,-24 6,-7 17,-7 23,0l27 26c6,6 7,17 0,24 -7,6 -17,6 -24,0l-26 -26zm-148 0c-6,-7 -6,-17 0,-24 7,-7 17,-7 24,0l26 26c7,6 7,17 1,24 -7,6 -18,6 -24,0l-27 -26zm-147 0c-7,-7 -7,-17 0,-24 6,-7 17,-7 24,0l26 26c7,6 7,17 0,24 -6,6 -17,6 -24,0l-26 -26z"></path></g></svg>