<svg height='100px' width='100px'  fill="#000000" xmlns="http://www.w3.org/2000/svg" viewBox="0 0 64 64" x="0px" y="0px"><title>Glyph - Compound</title><g><path d="M40,37v4a7.0078,7.0078,0,0,1-7,7H11a7.0078,7.0078,0,0,1-7-7V37a1,1,0,0,1,1-1H39A1,1,0,0,1,40,37Zm19-1H42v5a8.9413,8.9413,0,0,1-.5251,3h.6965a2.98,2.98,0,0,0,2.1216-.8789l.8281-.8281A.9942.9942,0,0,1,45.8286,42H59a1,1,0,0,0,1-1V37A1,1,0,0,0,59,36ZM21.293,32.293a1,1,0,1,0,1.414,1.414c1.628-1.6279,3.7237-5.6909,0-9.414-3.1728-3.1729-.3369-6.2432.002-6.5879a1,1,0,0,0-1.416-1.4121c-1.628,1.6279-3.7237,5.6909,0,9.414C24.4683,28.8823,21.625,31.9556,21.293,32.293Zm-11.125.1523a1,1,0,1,0,1.664,1.1094,6.613,6.613,0,0,0,0-7.1094,4.61,4.61,0,0,1,.0025-4.894,1,1,0,0,0-1.6665-1.106,6.613,6.613,0,0,0,0,7.1094A4.61,4.61,0,0,1,10.168,32.4453Zm22,0a1,1,0,1,0,1.664,1.1094,6.613,6.613,0,0,0,0-7.1094,4.61,4.61,0,0,1,.0025-4.894,1,1,0,0,0-1.6665-1.106,6.613,6.613,0,0,0,0,7.1094A4.61,4.61,0,0,1,32.168,32.4453Z"></path></g></svg>