<svg height='100px' width='100px'  fill="#000000" xmlns="http://www.w3.org/2000/svg" xmlns:xlink="http://www.w3.org/1999/xlink" version="1.1" x="0px" y="0px" viewBox="0 0 91 91" style="enable-background:new 0 0 91 91;" xml:space="preserve"><g><path d="M63,1.1C51.6,0.2,39.6,6.3,35.3,17.3c-2.2,5.8-2.5,11.6-1.5,17.7c0.4,2.2,1,4.3,1.8,6.5c0.5,1.4,1.1,2.5,0.9,4   c-0.3,2.6-1.4,5.7-2.5,8.1c-0.9,2,1.1,4.7,3.2,3.2c2.6-1.7,5.6-3,8.7-4c1.2,1.9,3.5,2.7,5.7,3.4c3.2,1.1,6.6,1.6,10,1.5   c6-0.1,12.2-1.8,17-5.5c8.7-6.7,12.3-18.7,9.9-29.3C85.9,10.7,75.3,2.1,63,1.1z M79.7,44.7c-3.6,4.6-8.7,7.1-14.4,8   c-3.4,0.5-6.9,0.3-10.3-0.4c-1.1-0.2-2.3-0.7-3.4-1.1c1.9-1,0.8-4.4-1.6-3.8c-3.2,0.8-6.5,1.5-9.6,2.7c0.4-1.4,0.7-2.9,0.9-4.3   c0.3-2.6-0.9-4.7-1.7-7c-1.1-3.1-1.6-6.6-1.7-9.9C37.5,19.2,43.3,10.2,52.4,7C62.8,3.4,75,6.8,80.9,16.3   C86.4,25.1,86.1,36.4,79.7,44.7z"></path><path d="M26.6,85.5c5.9,2.8,12.8,5.3,19.4,4.3c6.8-1.1,11.4-5.9,14.5-11.7c1.8-3.4-0.1-4.9-2.6-7.1c-3.1-2.8-6.1-6.1-9.5-8.5   c-3.3-2.2-5.7,0.4-8.4,2.3s-5.2,3.9-7.8,6c-2.7-1.3-5.1-3.1-7.2-5.4c-2.1-2.2-3.8-4.6-5.2-7.3c2.4-1.8,4.6-3.6,6.8-5.7   c2.2-2,4.3-4.2,3.7-7.4c-0.6-3-3.1-5.6-4.9-8c-1.7-2.3-3.2-5.5-5.7-7.1c-2.2-1.5-4.5-1-6.6,0.4c-2.8,1.9-5.8,4.4-8.2,6.9   C0.8,41.7,0.7,49,1.6,54.9C3.7,68.6,14.4,79.7,26.6,85.5z M5.6,48.3c0.2-2.7,0.3-5.3,2.1-7.5c1.4-1.7,3.4-2.9,5-4.3   c0.9-0.8,2.3-2.5,3.5-2.8c1.9-0.5,2.7,1.5,3.6,2.7c1.5,2.1,3.2,4,4.7,6.1c1,1.4,2.3,3,1.5,4.6c-0.6,1.3-2,2.2-3,3.2   c-1.6,1.5-3.1,3.1-4.5,4.7c-0.8-2.2-1.6-4.5-3.3-6c-0.8-0.7-1.9-0.4-2.3,0.6c-1.1,3.3,0.9,7.2,2.2,10.1c1.7,3.6,4.1,7.1,6.9,9.9   c5.6,5.6,13.3,8.8,21.2,8.4c3.3-0.2,3.3-5.3,0-5.1c-2.4,0.1-4.7-0.1-6.9-0.7c0.9-0.8,1.9-1.6,2.9-2.4c1.4-1,4.8-4,6.6-3.8   c1.2,0.1,2.5,1.8,3.4,2.5c1,0.8,2,1.6,3,2.4c1.3,1.1,5.8,3.5,5.4,5.3c-0.4,1.9-3,4.6-4.4,6c-2.2,2.1-4.9,3.2-7.9,3.3   c-5,0.5-10.3-1.2-15-3.2c-8.9-3.8-17.1-10.4-21.5-19.1C6.5,58.6,5.2,53.5,5.6,48.3z"></path><path d="M76.9,30.8c-10.6,0.1-21.8-0.6-32.2,1.3c-1.4,0.3-1.5,2.7,0,2.9c10.5,1.7,21.6,0.6,32.2,0.5C80,35.5,80,30.7,76.9,30.8z"></path><path d="M50.1,29.1c0.5-2.6,0.9-5.2,2.5-7.4c1.9-2.5,4.8-3.9,7.9-4.1c6-0.5,10.8,3,11.1,9.2c0.1,2.7,4.4,2.7,4.2,0   C75.4,19.2,70.2,14,63,13.4c0.1-0.2,0.2-0.3,0.2-0.5c0.3-1.1-0.4-2.3-1.5-2.6c-1.1-0.2-2.3,0.3-2.6,1.5c-0.1,0.5,0,1.1,0.2,1.6   c0,0.1,0,0.1,0,0.2c-6.8,1-15.9,8.3-11.5,15.8C48.5,30.2,49.9,30.1,50.1,29.1z"></path><path d="M58.4,20.3c-1.5,0.4-3,1.3-3.9,2.7c-0.8,1.2-1.3,3.1-0.2,4.2c0.4,0.4,0.9,0.3,1.3,0c0.7-0.6,1-1.5,1.6-2.1   c0.6-0.7,1.2-1.1,2.1-1.2C61.6,23.3,60.7,19.7,58.4,20.3z"></path><path d="M72.6,37.8c-7.6,0-16.2-0.5-23.6,1.8c-0.9,0.3-1.1,1.9,0,2c7.6,1.1,15.8,0.1,23.6,0.2C75.2,41.9,75.2,37.8,72.6,37.8z"></path></g></svg>