<svg height='100px' width='100px'  fill="#000000" xmlns="http://www.w3.org/2000/svg" xmlns:xlink="http://www.w3.org/1999/xlink" version="1.1" x="0px" y="0px" viewBox="0 0 64 64" style="enable-background:new 0 0 64 64;" xml:space="preserve"><g><path d="M58.804,36l-6.25-10H46.96c-0.082-1.601-0.359-3.18-0.831-4.715L50.414,17H52c1.654,0,3-1.346,3-3s-1.346-3-3-3   c0-1.654-1.346-3-3-3s-3,1.346-3,3v1.586l-4.418,4.418c-3.322,0.017-6.467,1.135-9.029,3.176c-0.532-1.034-1.495-1.811-2.655-2.078   C29.489,16.327,27.897,15,26,15s-3.489,1.327-3.898,3.102c-1.485,0.342-2.658,1.515-3,3C17.327,21.511,16,23.103,16,25   c0,0.342,0.059,0.675,0.143,1h-4.697l-6.25,10h7.889l2.4,27h33.03l2.4-27H58.804z M55.196,34H26.554l-3.75-6h28.642L55.196,34z    M35.857,26C35.941,25.675,36,25.342,36,25c0-1.461-0.791-2.735-1.964-3.433c2.168-1.644,4.788-2.549,7.553-2.563l2.532,2.532   c0.477,1.449,0.752,2.947,0.838,4.464H35.857z M48,13.414V11c0-0.551,0.449-1,1-1s1,0.449,1,1v2h2c0.551,0,1,0.449,1,1   s-0.449,1-1,1h-2.414L45,19.586L43.414,18L48,13.414z M18,25c0-1.103,0.897-2,2-2h1v-1c0-1.103,0.897-2,2-2h1v-1   c0-1.103,0.897-2,2-2s2,0.897,2,2v1h1c1.103,0,2,0.897,2,2v1h1c1.103,0,2,0.897,2,2c0,0.355-0.097,0.698-0.272,1H30v-1h-2v1h-5.196   H22v-1h-2v1h-0.804h-0.924C18.097,25.698,18,25.355,18,25z M12.554,28h6.642l-3.75,6H8.804L12.554,28z M15.093,36h1.461   l3.635-5.815L22.908,61h-5.593L15.093,36z M46.685,61H24.916L22.26,30.903L25.446,36h23.461L46.685,61z"></path><path d="M36,58c5.514,0,10-4.486,10-10s-4.486-10-10-10s-10,4.486-10,10S30.486,58,36,58z M36,40c4.411,0,8,3.589,8,8s-3.589,8-8,8   s-8-3.589-8-8S31.589,40,36,40z"></path><rect x="35" y="43" width="2" height="2"></rect><rect x="35" y="47" width="2" height="2"></rect><rect x="35" y="51" width="2" height="2"></rect><rect x="25" y="21" width="2" height="2"></rect><path d="M32.293,14.707l1.414-1.414l-1-1C32.258,11.844,32,11.221,32,10.586v-0.172c0-0.635,0.258-1.258,0.707-1.707   C33.541,7.874,34,6.765,34,5.586V5.414c0-1.179-0.459-2.288-1.293-3.121l-1-1l-1.414,1.414l1,1C31.742,4.156,32,4.779,32,5.414   v0.172c0,0.635-0.258,1.258-0.707,1.707C30.459,8.126,30,9.235,30,10.414v0.172c0,1.179,0.459,2.288,1.293,3.121L32.293,14.707z"></path><path d="M27.293,14.707l1.414-1.414l-1-1C27.258,11.844,27,11.221,27,10.586v-0.172c0-0.635,0.258-1.258,0.707-1.707   C28.541,7.874,29,6.765,29,5.586V5.414c0-1.179-0.459-2.288-1.293-3.121l-1-1l-1.414,1.414l1,1C26.742,4.156,27,4.779,27,5.414   v0.172c0,0.635-0.258,1.258-0.707,1.707C25.459,8.126,25,9.235,25,10.414v0.172c0,1.179,0.459,2.288,1.293,3.121L27.293,14.707z"></path><path d="M37.293,14.707l1.414-1.414l-1-1C37.258,11.844,37,11.221,37,10.586v-0.172c0-0.635,0.258-1.258,0.707-1.707   C38.541,7.874,39,6.765,39,5.586V5.414c0-1.179-0.459-2.288-1.293-3.121l-1-1l-1.414,1.414l1,1C36.742,4.156,37,4.779,37,5.414   v0.172c0,0.635-0.258,1.258-0.707,1.707C35.459,8.126,35,9.235,35,10.414v0.172c0,1.179,0.459,2.288,1.293,3.121L37.293,14.707z"></path></g></svg>