<svg height='100px' width='100px'  fill="#000000" xmlns:x="http://ns.adobe.com/Extensibility/1.0/" xmlns:i="http://ns.adobe.com/AdobeIllustrator/10.0/" xmlns:graph="http://ns.adobe.com/Graphs/1.0/" xmlns="http://www.w3.org/2000/svg" xmlns:xlink="http://www.w3.org/1999/xlink" version="1.1" x="0px" y="0px" viewBox="0 0 100 100" style="enable-background:new 0 0 100 100;" xml:space="preserve"><g><g i:extraneous="self"><g><path d="M95.1,51.8l-8.5-1.2l-3.5-8.7c-0.9-2.4-3.2-3.8-5.9-3.8h-7.9l0.9-4.8c0.4-1.9-0.1-3.8-1.4-5.3c-1.2-1.4-2.9-2.2-4.7-2.2     H29.8c-2.9,0-5.5,2.1-6,5.1l-4.6,24.2c-0.4,1.9,0.1,3.8,1.4,5.3c0.3,0.3,0.5,0.6,0.9,0.8l-0.7,4c-0.2,1,0.6,2,1.7,2h3.5     c-0.4,3.9,2.3,6.9,6.3,6.9s7.7-3.1,8.7-6.9h33.9c-0.4,3.9,2.3,6.9,6.3,6.9c3.9,0,7.7-3.1,8.7-6.9h4.3c0.8,0,1.5-0.6,1.7-1.4     l1.9-10.7C97.7,53.5,96.8,52.1,95.1,51.8z M37.4,66.7c-0.4,2.2-2.5,4-4.7,4c-2.2,0-3.7-1.8-3.3-4c0.4-2.2,2.5-4,4.7-4     C36.3,62.7,37.8,64.5,37.4,66.7z M66.2,32.6l-4.6,24.2c-0.2,1-1,1.7-2,1.7H25.3c-1.3,0-2.2-1.3-2-2.6l4.6-24.2c0.2-1,1-1.7,2-1.7     h34.4C65.5,29.9,66.5,31.2,66.2,32.6z M69.4,50.2l1.3-7.2c0-0.1,0.1-0.2,0.2-0.2h5.6c1,0,1.9,0.6,2.2,1.4l2.3,5.9     c0.1,0.1,0,0.3-0.2,0.3H69.6C69.4,50.5,69.3,50.3,69.4,50.2z M86.2,66.7c-0.4,2.2-2.5,4-4.7,4s-3.7-1.8-3.3-4s2.5-4,4.7-4     C85.2,62.7,86.6,64.5,86.2,66.7z"></path><path d="M17.3,33.6H7.4c-1.1,0-2.1,0.9-2.1,2.1s0.9,2.1,2.1,2.1h9.9c1.1,0,2.1-0.9,2.1-2.1S18.4,33.6,17.3,33.6z"></path><path d="M15.9,41.1H6c-1.1,0-2.1,0.9-2.1,2.1s0.9,2.1,2.1,2.1h9.9c1.1,0,2.1-0.9,2.1-2.1S17,41.1,15.9,41.1z"></path><path d="M14.5,48.6H4.6c-1.1,0-2.1,0.9-2.1,2.1s0.9,2.1,2.1,2.1h9.9c1.1,0,2.1-0.9,2.1-2.1S15.6,48.6,14.5,48.6z"></path><path d="M34.1,47.8h19.2c0.3,0,0.5-0.3,0.5-0.6c-0.4-4.3-3.6-7.8-7.7-8.8v-0.8c0-1.1-0.9-1.9-1.9-1.9h-0.9     c-1.1,0-1.9,0.9-1.9,1.9v0.8c-4.1,1-7.3,4.5-7.7,8.8C33.5,47.5,33.7,47.8,34.1,47.8z M42.6,37.6c0-0.3,0.3-0.6,0.6-0.6h0.9     c0.3,0,0.6,0.3,0.6,0.6v0.6c-0.3,0-0.7-0.1-1.1-0.1c-0.4,0-0.7,0-1.1,0.1V37.6z"></path><path d="M55.1,49.2h-23c-0.4,0-0.7,0.3-0.7,0.7v1.3c0,0.4,0.3,0.7,0.7,0.7h23c0.4,0,0.7-0.3,0.7-0.7v-1.3     C55.8,49.5,55.5,49.2,55.1,49.2z"></path></g></g></g></svg>