<svg height='100px' width='100px'  fill="#000000" xmlns="http://www.w3.org/2000/svg" xmlns:xlink="http://www.w3.org/1999/xlink" version="1.1" x="0px" y="0px" viewBox="0 0 64 64" style="enable-background:new 0 0 64 64;" xml:space="preserve"><path d="M42.9,30.4H34c-0.6,0-1,0.4-1,1s0.4,1,1,1h8.9c0.6,0,1-0.4,1-1S43.5,30.4,42.9,30.4z"></path><path d="M37.5,21.3v0.6c-3,0.5-5.3,3.1-5.3,6.2c0,0,0,0,0,0c-0.3,0.2-0.6,0.5-0.6,0.9c0,0.6,0.4,1,1,1h11.7c0.6,0,1-0.4,1-1  c0-0.4-0.2-0.7-0.6-0.9c0,0,0,0,0,0c0-3.1-2.2-5.7-5.3-6.2v-0.6c0-0.6-0.4-1-1-1S37.5,20.8,37.5,21.3z M42.8,28.1h-8.6  c0-2.2,1.7-4,3.9-4.2c0.3,0,0.5,0,0.8,0C41,24.1,42.7,25.9,42.8,28.1z"></path><path d="M28.1,53.5L28.1,53.5c-0.6,0-1,0.4-1,1s0.5,1,1,1s1-0.4,1-1S28.7,53.5,28.1,53.5z"></path><path d="M22.7,10.5h10.9c0.6,0,1-0.4,1-1s-0.4-1-1-1H22.7c-0.6,0-1,0.4-1,1S22.1,10.5,22.7,10.5z"></path><path d="M51,26.7c0-4.5-3.9-8.4-9.1-9.5v-4.7c0,0,0,0,0,0s0,0,0,0V9.7c0-2.3-1.9-4.2-4.2-4.2H18.5c-2.3,0-4.2,1.9-4.2,4.2v44.7  c0,2.3,1.9,4.2,4.2,4.2h19.2c2.3,0,4.2-1.9,4.2-4.2v-2.8c0,0,0,0,0,0s0,0,0,0V36.2C47.1,35,51,31.2,51,26.7z M49,26.7  c0,4.3-4.7,7.9-10.5,7.9c-0.5,0-0.9,0-1.3-0.1c-0.1,0-0.2,0-0.3,0l-5.1,1.1l1-0.7c0.3-0.2,0.4-0.5,0.4-0.9s-0.2-0.7-0.5-0.8  c-2.9-1.5-4.6-3.9-4.6-6.5c0-4.3,4.7-7.9,10.5-7.9C44.3,18.8,49,22.3,49,26.7z M18.5,7.5h19.2c1.2,0,2.2,1,2.2,2.2v1.8H16.4V9.7  C16.4,8.5,17.4,7.5,18.5,7.5z M37.7,56.5H18.5c-1.2,0-2.2-1-2.2-2.2v-1.8h23.5v1.8C39.9,55.5,38.9,56.5,37.7,56.5z M39.9,50.5H16.4  v-37h23.5v3.4c-0.4,0-0.9-0.1-1.3-0.1c-6.9,0-12.5,4.4-12.5,9.9c0,2.9,1.6,5.6,4.3,7.5l-3.9,2.7c-0.4,0.3-0.5,0.8-0.3,1.2  c0.2,0.4,0.5,0.6,0.9,0.6c0.1,0,0.1,0,0.2,0l9.8-2.2c0.4,0,0.9,0.1,1.4,0.1c0.4,0,0.9,0,1.3-0.1V50.5z"></path></svg>